<?xml version="1.0" encoding="UTF-8"?>
<svg version="1.1" xmlns="http://www.w3.org/2000/svg" width="450" height="450">
<path d="M0 0 C148.5 0 297 0 450 0 C450 148.5 450 297 450 450 C301.5 450 153 450 0 450 C0 301.5 0 153 0 0 Z " fill="#A9E091" transform="translate(0,0)"/>
<path d="M0 0 C37.29 0 74.58 0 113 0 C113 3.63 113 7.26 113 11 C118.28 11 123.56 11 129 11 C129 17.27 129 23.54 129 30 C134.61 30 140.22 30 146 30 C146 37.59 146 45.18 146 53 C148.31 53 150.62 53 153 53 C152.82597656 52.43796875 152.65195313 51.8759375 152.47265625 51.296875 C151.68078353 47.44876626 152.48728775 43.87382586 153 40 C158.94 39.505 158.94 39.505 165 39 C165.33 35.37 165.66 31.74 166 28 C170.29 28 174.58 28 179 28 C179 32.29 179 36.58 179 41 C174.71 41 170.42 41 166 41 C166 45.29 166 49.58 166 54 C161.71 54 157.42 54 153 54 C153 58.29 153 62.58 153 67 C149.04 67 145.08 67 141 67 C140.67 92.74 140.34 118.48 140 145 C144.29 145 148.58 145 153 145 C153 149.29 153 153.58 153 158 C157.29 158 161.58 158 166 158 C166 161.96 166 165.92 166 170 C167.39025391 169.98259766 167.39025391 169.98259766 168.80859375 169.96484375 C170.60490234 169.95130859 170.60490234 169.95130859 172.4375 169.9375 C173.63246094 169.92589844 174.82742187 169.91429687 176.05859375 169.90234375 C179 170 179 170 180 171 C180 174.96 180 178.92 180 183 C192.54 183.33 205.08 183.66 218 184 C218 192.25 218 200.5 218 209 C222.29 209 226.58 209 231 209 C231 200.75 231 192.5 231 184 C243.87 184 256.74 184 270 184 C270 179.38 270 174.76 270 170 C274.29 170 278.58 170 283 170 C283 165.71 283 161.42 283 157 C287.29 157 291.58 157 296 157 C296 153.04 296 149.08 296 145 C300.62 145 305.24 145 310 145 C310 149.29 310 153.58 310 158 C306.04 158.33 302.08 158.66 298 159 C297.67 162.96 297.34 166.92 297 171 C292.76358987 171.84728203 289.27587998 172.08384078 285 172 C286.65 172.33 288.3 172.66 290 173 C290 179.27 290 185.54 290 192 C296.27 192 302.54 192 309 192 C309 198.27 309 204.54 309 211 C321.21 211 333.42 211 346 211 C346 217.27 346 223.54 346 230 C327.52 230 309.04 230 290 230 C290 242.21 290 254.42 290 267 C284.06 267 278.12 267 272 267 C272 260.73 272 254.46 272 248 C265.4 248 258.8 248 252 248 C252 242.06 252 236.12 252 230 C233.52 230 215.04 230 196 230 C196 236.27 196 242.54 196 249 C190.06 249 184.12 249 178 249 C178 255.27 178 261.54 178 268 C171.73 268 165.46 268 159 268 C159 286.15 159 304.3 159 323 C152.73 323 146.46 323 140 323 C140 348.08 140 373.16 140 399 C176.96 399 213.92 399 252 399 C252 405.27 252 411.54 252 418 C233.52 418 215.04 418 196 418 C196 428.56 196 439.12 196 450 C131.32 450 66.64 450 0 450 C0 301.5 0 153 0 0 Z " fill="#4C2D3A" transform="translate(0,0)"/>
<path d="M0 0 C18.48 0 36.96 0 56 0 C56 5.94 56 11.88 56 18 C62.6 18 69.2 18 76 18 C76 24.27 76 30.54 76 37 C81.94 37 87.88 37 94 37 C94 24.79 94 12.58 94 0 C112.48 0 130.96 0 150 0 C150 6.27 150 12.54 150 19 C156.27 19 162.54 19 169 19 C169 37.48 169 55.96 169 75 C163.06 75 157.12 75 151 75 C151 80.94 151 86.88 151 93 C157.27 93 163.54 93 170 93 C170 87.06 170 81.12 170 75 C197.72 75 225.44 75 254 75 C254 122.85 254 170.7 254 220 C170.18 220 86.36 220 0 220 C0 209.44 0 198.88 0 188 C18.48 188 36.96 188 56 188 C56 181.73 56 175.46 56 169 C19.04 169 -17.92 169 -56 169 C-56 143.92 -56 118.84 -56 93 C-49.73 93 -43.46 93 -37 93 C-37 74.85 -37 56.7 -37 38 C-30.73 38 -24.46 38 -18 38 C-18 31.73 -18 25.46 -18 19 C-12.06 19 -6.12 19 0 19 C0 12.73 0 6.46 0 0 Z " fill="#F4C89E" transform="translate(196,230)"/>
<path d="M0 0 C10.89 0 21.78 0 33 0 C33 5.28 33 10.56 33 16 C38.61 16 44.22 16 50 16 C50 27.88 50 39.76 50 52 C54.62 52 59.24 52 64 52 C64 68.5 64 85 64 102 C64.66 102 65.32 102 66 102 C66 108.6 66 115.2 66 122 C69.96 122 73.92 122 78 122 C78 123.65 78 125.3 78 127 C79.65 127 81.3 127 83 127 C83 138.55 83 150.1 83 162 C81.02 162 79.04 162 77 162 C77 168.27 77 174.54 77 181 C70.73 181 64.46 181 58 181 C58 187.27 58 193.54 58 200 C51.73 200 45.46 200 39 200 C39.12375 201.85625 39.2475 203.7125 39.375 205.625 C39.31683137 212.65509497 39.31683137 212.65509497 36.8125 215.75 C32.15768781 219.60459024 25.65663196 218.45320197 20 218 C20 220.31 20 222.62 20 225 C17.69 225 15.38 225 13 225 C13 208.83 13 192.66 13 176 C7.39 176 1.78 176 -4 176 C-4 164.45 -4 152.9 -4 141 C-10.27 141 -16.54 141 -23 141 C-23 135.39 -23 129.78 -23 124 C-28.28 124 -33.56 124 -39 124 C-39 117.73 -39 111.46 -39 105 C-37.02 105 -35.04 105 -33 105 C-33 87.18 -33 69.36 -33 51 C-27.72 51 -22.44 51 -17 51 C-17 39.45 -17 27.9 -17 16 C-11.39 16 -5.78 16 0 16 C0 10.72 0 5.44 0 0 Z " fill="#A1D983" transform="translate(63,30)"/>
<path d="M0 0 C0 21.45 0 42.9 0 65 C4.29 65 8.58 65 13 65 C13 69.29 13 73.58 13 78 C17.29 78 21.58 78 26 78 C26 81.96 26 85.92 26 90 C27.39025391 89.98259766 27.39025391 89.98259766 28.80859375 89.96484375 C30.00613281 89.95582031 31.20367187 89.94679688 32.4375 89.9375 C33.63246094 89.92589844 34.82742187 89.91429687 36.05859375 89.90234375 C39 90 39 90 40 91 C40 94.96 40 98.92 40 103 C58.81 103.495 58.81 103.495 78 104 C78 112.25 78 120.5 78 129 C82.29 129 86.58 129 91 129 C91 120.75 91 112.5 91 104 C103.87 104 116.74 104 130 104 C130 99.38 130 94.76 130 90 C134.29 90 138.58 90 143 90 C143 85.71 143 81.42 143 77 C147.29 77 151.58 77 156 77 C156 73.04 156 69.08 156 65 C160.62 65 165.24 65 170 65 C170 69.29 170 73.58 170 78 C164.06 78.495 164.06 78.495 158 79 C157.67 82.96 157.34 86.92 157 91 C152.76358987 91.84728203 149.27587998 92.08384078 145 92 C146.65 92.33 148.3 92.66 150 93 C150 99.27 150 105.54 150 112 C156.27 112 162.54 112 169 112 C169 118.27 169 124.54 169 131 C181.21 131 193.42 131 206 131 C206 137.27 206 143.54 206 150 C187.52 150 169.04 150 150 150 C150 162.21 150 174.42 150 187 C144.06 187 138.12 187 132 187 C132 180.73 132 174.46 132 168 C125.4 168 118.8 168 112 168 C112 162.06 112 156.12 112 150 C93.52 150 75.04 150 56 150 C56 156.27 56 162.54 56 169 C50.06 169 44.12 169 38 169 C38 175.27 38 181.54 38 188 C31.73 188 25.46 188 19 188 C19 206.15 19 224.3 19 243 C18.67 243 18.34 243 18 243 C18 224.85 18 206.7 18 188 C12.06 188 6.12 188 0 188 C0 193.94 0 199.88 0 206 C-6.27 206 -12.54 206 -19 206 C-19 212.27 -19 218.54 -19 225 C-24.94 225 -30.88 225 -37 225 C-37 206.52 -37 188.04 -37 169 C-31.06 169 -25.12 169 -19 169 C-19 156.46 -19 143.92 -19 131 C-12.73 131 -6.46 131 0 131 C0 124.73 0 118.46 0 112 C1.98 112 3.96 112 6 112 C6 100.45 6 88.9 6 77 C4.35 77 2.7 77 1 77 C1 75.35 1 73.7 1 72 C-2.96 72 -6.92 72 -11 72 C-11 65.4 -11 58.8 -11 52 C-11.66 52 -12.32 52 -13 52 C-14.40027356 17.51072249 -14.40027356 17.51072249 -13 2 C-17.62 2 -22.24 2 -27 2 C-27 1.67 -27 1.34 -27 1 C-24.93803154 0.82688121 -22.87537411 0.66197049 -20.8125 0.5 C-19.08966797 0.36078125 -19.08966797 0.36078125 -17.33203125 0.21875 C-11.56157955 -0.0726344 -5.77780388 0 0 0 Z " fill="#468E49" transform="translate(140,80)"/>
<path d="M0 0 C2.31 0 4.62 0 7 0 C7 6.27 7 12.54 7 19 C12.61 19 18.22 19 24 19 C24 30.55 24 42.1 24 54 C29.28 54 34.56 54 40 54 C40 71.82 40 89.64 40 108 C46.27 108 52.54 108 59 108 C59 118.23 59 128.46 59 139 C64.28 139 69.56 139 75 139 C75 185.53 75 232.06 75 280 C50.25 280 25.5 280 0 280 C0 187.6 0 95.2 0 0 Z " fill="#A5DF86" transform="translate(0,170)"/>
<path d="M0 0 C3.96 0 7.92 0 12 0 C12 12.87 12 25.74 12 39 C16.29 39 20.58 39 25 39 C25 43.29 25 47.58 25 52 C29.29 52 33.58 52 38 52 C38 56.29 38 60.58 38 65 C42.29 65 46.58 65 51 65 C51 69.29 51 73.58 51 78 C55.29 78 59.58 78 64 78 C64 82.29 64 86.58 64 91 C68.29 91 72.58 91 77 91 C77 86.38 77 81.76 77 77 C72.71 77 68.42 77 64 77 C64 72.71 64 68.42 64 64 C60.04 64 56.08 64 52 64 C51.505 58.06 51.505 58.06 51 52 C47.04 51.67 43.08 51.34 39 51 C38.505 45.06 38.505 45.06 38 39 C34.04 38.67 30.08 38.34 26 38 C26 29.75 26 21.5 26 13 C29.96 13 33.92 13 38 13 C38 8.71 38 4.42 38 0 C46.58 0 55.16 0 64 0 C64 4.29 64 8.58 64 13 C76.87 13 89.74 13 103 13 C103 8.71 103 4.42 103 0 C111.58 0 120.16 0 129 0 C129 4.29 129 8.58 129 13 C133.29 13 137.58 13 142 13 C142 21.58 142 30.16 142 39 C146.29 39 150.58 39 155 39 C155 26.13 155 13.26 155 0 C159.29 0 163.58 0 168 0 C168 21.45 168 42.9 168 65 C163.71 65 159.42 65 155 65 C155 73.25 155 81.5 155 90 C150.71 90 146.42 90 142 90 C142 94.29 142 98.58 142 103 C137.71 103 133.42 103 129 103 C129 107.62 129 112.24 129 117 C116.13 117 103.26 117 90 117 C90 125.25 90 133.5 90 142 C85.71 142 81.42 142 77 142 C77 133.75 77 125.5 77 117 C68.98385042 117.03918696 68.98385042 117.03918696 60.96777344 117.09008789 C53.58373945 117.10806661 46.3503753 116.70934473 39 116 C38.67 112.04 38.34 108.08 38 104 C33.71 103.67 29.42 103.34 25 103 C25 99.04 25 95.08 25 91 C20.71 91 16.42 91 12 91 C12 86.71 12 82.42 12 78 C7.71 78 3.42 78 -1 78 C-1.02272845 69.74957117 -1.0410168 61.49916729 -1.05181217 53.2487154 C-1.05699732 49.41636795 -1.06401409 45.58404331 -1.07543945 41.75170898 C-1.0864255 38.04288196 -1.09230959 34.33407666 -1.09487724 30.6252346 C-1.09670352 29.22089484 -1.1002686 27.81655606 -1.10573006 26.41222572 C-1.13878714 17.54731999 -0.78844402 8.83111868 0 0 Z " fill="#FEB5D5" transform="translate(141,67)"/>
<path d="M0 0 C18.48 0 36.96 0 56 0 C56.495 8.91 56.495 8.91 57 18 C62.94 18.33 68.88 18.66 75 19 C75 25.27 75 31.54 75 38 C81.27 38 87.54 38 94 38 C94 62.75 94 87.5 94 113 C88.06 113 82.12 113 76 113 C76 119.27 76 125.54 76 132 C57.19 132 38.38 132 19 132 C19 125.73 19 119.46 19 113 C-5.75 113 -30.5 113 -56 113 C-56 106.4 -56 99.8 -56 93 C-49.73 93 -43.46 93 -37 93 C-37 74.85 -37 56.7 -37 38 C-30.73 38 -24.46 38 -18 38 C-18 31.73 -18 25.46 -18 19 C-12.06 19 -6.12 19 0 19 C0 12.73 0 6.46 0 0 Z " fill="#F7E4CD" transform="translate(196,230)"/>
<path d="M0 0 C6.27 0 12.54 0 19 0 C19 12.21 19 24.42 19 37 C12.73 37 6.46 37 0 37 C0 42.94 0 48.88 0 55 C-6.27 55 -12.54 55 -19 55 C-19 61.6 -19 68.2 -19 75 C24.56 75 68.12 75 113 75 C113 68.73 113 62.46 113 56 C128.51 56 144.02 56 160 56 C160 66.56 160 77.12 160 88 C76.18 88 -7.64 88 -94 88 C-94 77.44 -94 66.88 -94 56 C-75.52 56 -57.04 56 -38 56 C-38 43.46 -38 30.92 -38 18 C-25.46 18 -12.92 18 0 18 C0 12.06 0 6.12 0 0 Z " fill="#E59B68" transform="translate(290,362)"/>
<path d="M0 0 C21.78 0 43.56 0 66 0 C67 10 67 10 66 13 C74.25 13 82.5 13 91 13 C92.87404046 17.68510114 93.19157797 20.11476189 93 25 C96.96 25.33 100.92 25.66 105 26 C106.125 35.625 106.125 35.625 105 39 C109.29 39 113.58 39 118 39 C119.76271186 59.71186441 119.76271186 59.71186441 118 65 C121.96 65 125.92 65 130 65 C130 82.49 130 99.98 130 118 C126.37 118.33 122.74 118.66 119 119 C118.67 122.63 118.34 126.26 118 130 C117.67 130 117.34 130 117 130 C117 104.59 117 79.18 117 53 C112.71 53 108.42 53 104 53 C104 65.87 104 78.74 104 92 C99.71 92 95.42 92 91 92 C91 83.42 91 74.84 91 66 C86.71 66 82.42 66 78 66 C78 61.71 78 57.42 78 53 C69.42 53 60.84 53 52 53 C52 57.29 52 61.58 52 66 C39.13 66 26.26 66 13 66 C13 61.71 13 57.42 13 53 C4.42 53 -4.16 53 -13 53 C-13 57.29 -13 61.58 -13 66 C-16.96 66 -20.92 66 -25 66 C-25 74.25 -25 82.5 -25 91 C-21.04 91 -17.08 91 -13 91 C-12 92 -12 92 -11.90234375 94.72265625 C-11.91394531 95.82480469 -11.92554688 96.92695312 -11.9375 98.0625 C-11.94652344 99.16722656 -11.95554688 100.27195312 -11.96484375 101.41015625 C-11.97644531 102.26480469 -11.98804688 103.11945313 -12 104 C-11.14535156 103.98839844 -10.29070312 103.97679688 -9.41015625 103.96484375 C-7.75306641 103.95130859 -7.75306641 103.95130859 -6.0625 103.9375 C-4.96035156 103.92589844 -3.85820312 103.91429688 -2.72265625 103.90234375 C0 104 0 104 1 105 C1.14355117 109.00220653 1.04216403 112.99441683 1 117 C4.96 117 8.92 117 13 117 C13 121.29 13 125.58 13 130 C17.29 130 21.58 130 26 130 C26 134.62 26 139.24 26 144 C21.71 144 17.42 144 13 144 C13 139.71 13 135.42 13 131 C8.71 131 4.42 131 0 131 C0 126.71 0 122.42 0 118 C-4.29 118 -8.58 118 -13 118 C-13 113.71 -13 109.42 -13 105 C-17.29 105 -21.58 105 -26 105 C-26 100.71 -26 96.42 -26 92 C-30.29 92 -34.58 92 -39 92 C-39 74.84 -39 57.68 -39 40 C-17.55 40 3.9 40 26 40 C26 44.29 26 48.58 26 53 C30.29 53 34.58 53 39 53 C39 48.71 39 44.42 39 40 C56.16 40 73.32 40 91 40 C91 35.71 91 31.42 91 27 C86.71 27 82.42 27 78 27 C78 22.71 78 18.42 78 14 C48.3 14 18.6 14 -12 14 C-12 13.67 -12 13.34 -12 13 C-8.04 13 -4.08 13 0 13 C0 8.71 0 4.42 0 0 Z " fill="#FC7D9E" transform="translate(192,14)"/>
<path d="M0 0 C4.62 0 9.24 0 14 0 C14 4.29 14 8.58 14 13 C10.04 13.33 6.08 13.66 2 14 C1.67 17.96 1.34 21.92 1 26 C-3.23641013 26.84728203 -6.72412002 27.08384078 -11 27 C-9.35 27.33 -7.7 27.66 -6 28 C-6 34.27 -6 40.54 -6 47 C0.27 47 6.54 47 13 47 C13 53.27 13 59.54 13 66 C25.21 66 37.42 66 50 66 C50 72.27 50 78.54 50 85 C31.52 85 13.04 85 -6 85 C-6 97.21 -6 109.42 -6 122 C-11.94 122 -17.88 122 -24 122 C-24 115.73 -24 109.46 -24 103 C-30.6 103 -37.2 103 -44 103 C-44 90.79 -44 78.58 -44 66 C-61.82 66 -79.64 66 -98 66 C-98 57.09 -98 48.18 -98 39 C-91.4 39 -84.8 39 -78 39 C-78 47.25 -78 55.5 -78 64 C-73.71 64 -69.42 64 -65 64 C-65 55.75 -65 47.5 -65 39 C-52.13 39 -39.26 39 -26 39 C-26 34.38 -26 29.76 -26 25 C-21.71 25 -17.42 25 -13 25 C-13 20.71 -13 16.42 -13 12 C-8.71 12 -4.42 12 0 12 C0 8.04 0 4.08 0 0 Z " fill="#769867" transform="translate(296,145)"/>
<path d="M0 0 C5.28 0 10.56 0 16 0 C16 46.53 16 93.06 16 141 C-8.75 141 -33.5 141 -59 141 C-59 123.84 -59 106.68 -59 89 C-45.8 89 -32.6 89 -19 89 C-19 82.73 -19 76.46 -19 70 C-12.73 70 -6.46 70 0 70 C0 46.9 0 23.8 0 0 Z " fill="#59C15D" transform="translate(59,309)"/>
<path d="M0 0 C24.75 0 49.5 0 75 0 C75 6.27 75 12.54 75 19 C81.27 19 87.54 19 94 19 C94 31.21 94 43.42 94 56 C62.98 56 31.96 56 0 56 C0 37.52 0 19.04 0 0 Z " fill="#F8A3A8" transform="translate(140,343)"/>
<path d="M0 0 C21.78 0 43.56 0 66 0 C66 24.75 66 49.5 66 75 C56.43 75 46.86 75 37 75 C37 69.06 37 63.12 37 57 C24.79 57 12.58 57 0 57 C0 50.4 0 43.8 0 37 C-5.94 37 -11.88 37 -18 37 C-18.020625 34.050625 -18.04125 31.10125 -18.0625 28.0625 C-18.071604 27.13187744 -18.08070801 26.20125488 -18.09008789 25.24243164 C-18.09258545 24.51403076 -18.09508301 23.78562988 -18.09765625 23.03515625 C-18.10289307 22.2862915 -18.10812988 21.53742676 -18.11352539 20.76586914 C-18 19 -18 19 -17 18 C-14.13530675 17.92669669 -11.30106326 17.90782169 -8.4375 17.9375 C-5.653125 17.958125 -2.86875 17.97875 0 18 C0 12.06 0 6.12 0 0 Z " fill="#F8E5CE" transform="translate(384,305)"/>
<path d="M0 0 C3.96 0 7.92 0 12 0 C12 12.87 12 25.74 12 39 C16.29 39 20.58 39 25 39 C25 43.29 25 47.58 25 52 C29.29 52 33.58 52 38 52 C38 56.29 38 60.58 38 65 C42.29 65 46.58 65 51 65 C51 69.29 51 73.58 51 78 C55.29 78 59.58 78 64 78 C64 82.29 64 86.58 64 91 C68.29 91 72.58 91 77 91 C77 99.25 77 107.5 77 116 C64.46 116 51.92 116 39 116 C38.67 112.04 38.34 108.08 38 104 C33.71 103.67 29.42 103.34 25 103 C25 99.04 25 95.08 25 91 C20.71 91 16.42 91 12 91 C12 86.71 12 82.42 12 78 C7.71 78 3.42 78 -1 78 C-1.02272845 69.74957117 -1.0410168 61.49916729 -1.05181217 53.2487154 C-1.05699732 49.41636795 -1.06401409 45.58404331 -1.07543945 41.75170898 C-1.0864255 38.04288196 -1.09230959 34.33407666 -1.09487724 30.6252346 C-1.09670352 29.22089484 -1.1002686 27.81655606 -1.10573006 26.41222572 C-1.13878714 17.54731999 -0.78844402 8.83111868 0 0 Z " fill="#FEFEFE" transform="translate(141,67)"/>
<path d="M0 0 C5.94 0 11.88 0 18 0 C18 18.15 18 36.3 18 55 C12.06 55 6.12 55 0 55 C0 80.08 0 105.16 0 131 C-6.27 131 -12.54 131 -19 131 C-19 105.92 -19 80.84 -19 55 C-24.94 55 -30.88 55 -37 55 C-37 49.06 -37 43.12 -37 37 C-31.06 37 -25.12 37 -19 37 C-19 30.73 -19 24.46 -19 18 C-12.73 18 -6.46 18 0 18 C0 12.06 0 6.12 0 0 Z " fill="#0E071B" transform="translate(140,268)"/>
<path d="M0 0 C12.54 0 25.08 0 38 0 C38 6.27 38 12.54 38 19 C44.27 19 50.54 19 57 19 C57 31.21 57 43.42 57 56 C38.52 56 20.04 56 1 56 C1 50.06 1 44.12 1 38 C-5.6 38 -12.2 38 -19 38 C-19 31.73 -19 25.46 -19 19 C-12.73 19 -6.46 19 0 19 C0 12.73 0 6.46 0 0 Z " fill="#F8E5CE" transform="translate(346,380)"/>
<path d="M0 0 C4.29 0 8.58 0 13 0 C13 21.45 13 42.9 13 65 C8.71 65 4.42 65 0 65 C0 73.25 0 81.5 0 90 C-4.29 90 -8.58 90 -13 90 C-13 94.29 -13 98.58 -13 103 C-21.58 103 -30.16 103 -39 103 C-39 107.29 -39 111.58 -39 116 C-47.58 116 -56.16 116 -65 116 C-65 111.71 -65 107.42 -65 103 C-60.71 103 -56.42 103 -52 103 C-52 99.04 -52 95.08 -52 91 C-47.71 91 -43.42 91 -39 91 C-39 86.71 -39 82.42 -39 78 C-36.35541621 76.67770811 -34.32238699 76.90322806 -31.375 76.9375 C-29.87066406 76.95103516 -29.87066406 76.95103516 -28.3359375 76.96484375 C-27.56507813 76.97644531 -26.79421875 76.98804688 -26 77 C-26.01160156 76.20078125 -26.02320313 75.4015625 -26.03515625 74.578125 C-26.09757287 66.98113117 -25.72887941 59.5621239 -25 52 C-21.04 52 -17.08 52 -13 52 C-13 47.71 -13 43.42 -13 39 C-8.71 39 -4.42 39 0 39 C0 26.13 0 13.26 0 0 Z " fill="#FEFDFE" transform="translate(296,67)"/>
<path d="M0 0 C29.7 0 59.4 0 90 0 C90 4.29 90 8.58 90 13 C94.29 13 98.58 13 103 13 C103 17.29 103 21.58 103 26 C85.84 26 68.68 26 51 26 C51 30.29 51 34.58 51 39 C46.71 39 42.42 39 38 39 C38 34.71 38 30.42 38 26 C20.84 26 3.68 26 -14 26 C-14 21.71 -14 17.42 -14 13 C-9.38 13 -4.76 13 0 13 C0 8.71 0 4.42 0 0 Z " fill="#FEFDFD" transform="translate(180,28)"/>
<path d="M0 0 C18.48 0 36.96 0 56 0 C56 6.27 56 12.54 56 19 C62.27 19 68.54 19 75 19 C75 25.27 75 31.54 75 38 C69.06 38 63.12 38 57 38 C57 43.94 57 49.88 57 56 C50.73 56 44.46 56 38 56 C38 49.73 38 43.46 38 37 C25.46 37 12.92 37 0 37 C0 24.79 0 12.58 0 0 Z " fill="#F8E4CD" transform="translate(290,230)"/>
<path d="M0 0 C12.21 0 24.42 0 37 0 C37 12.21 37 24.42 37 37 C31.06 37 25.12 37 19 37 C19 43.27 19 49.54 19 56 C12.73 56 6.46 56 0 56 C0 62.27 0 68.54 0 75 C-5.94 75 -11.88 75 -18 75 C-18 56.52 -18 38.04 -18 19 C-12.06 19 -6.12 19 0 19 C0 12.73 0 6.46 0 0 Z " fill="#F6CBA2" transform="translate(121,230)"/>
<path d="M0 0 C36.96 0 73.92 0 112 0 C112 6.27 112 12.54 112 19 C93.52 19 75.04 19 56 19 C56 29.56 56 40.12 56 51 C49.73 51 43.46 51 37 51 C37 40.44 37 29.88 37 19 C24.79 19 12.58 19 0 19 C0 12.73 0 6.46 0 0 Z " fill="#120B1D" transform="translate(140,399)"/>
<path d="M0 0 C3.63 0 7.26 0 11 0 C11 6.27 11 12.54 11 19 C23.21 19 35.42 19 48 19 C48 29.56 48 40.12 48 51 C25.56 51 3.12 51 -20 51 C-20 39.45 -20 27.9 -20 16 C-13.4 16 -6.8 16 0 16 C0 10.72 0 5.44 0 0 Z " fill="#9FD389" transform="translate(129,399)"/>
<path d="M0 0 C3.96 0 7.92 0 12 0 C12 3.96 12 7.92 12 12 C8.37 12.66 4.74 13.32 1 14 C3.475 14.495 3.475 14.495 6 15 C6 21.27 6 27.54 6 34 C12.27 34 18.54 34 25 34 C25 40.27 25 46.54 25 53 C37.21 53 49.42 53 62 53 C62 59.27 62 65.54 62 72 C43.52 72 25.04 72 6 72 C6 59.79 6 47.58 6 35 C0.06 35 -5.88 35 -12 35 C-12 40.94 -12 46.88 -12 53 C-18.27 53 -24.54 53 -31 53 C-31 46.73 -31 40.46 -31 34 C-25.06 34 -19.12 34 -13 34 C-13 27.07 -13 20.14 -13 13 C-8.71 13 -4.42 13 0 13 C0 8.71 0 4.42 0 0 Z " fill="#0E071B" transform="translate(284,158)"/>
<path d="M0 0 C5.94 0 11.88 0 18 0 C18 12.21 18 24.42 18 37 C39.78 37 61.56 37 84 37 C84 43.27 84 49.54 84 56 C56.28 56 28.56 56 0 56 C0 37.52 0 19.04 0 0 Z " fill="#0E071B" transform="translate(366,249)"/>
<path d="M0 0 C21.78 0 43.56 0 66 0 C67 10 67 10 66 13 C74.25 13 82.5 13 91 13 C92.87404046 17.68510114 93.19157797 20.11476189 93 25 C96.96 25.33 100.92 25.66 105 26 C106.125 35.625 106.125 35.625 105 39 C109.29 39 113.58 39 118 39 C119.76271186 59.71186441 119.76271186 59.71186441 118 65 C121.96 65 125.92 65 130 65 C130 82.49 130 99.98 130 118 C126.37 118.33 122.74 118.66 119 119 C118.67 122.63 118.34 126.26 118 130 C117.67 130 117.34 130 117 130 C117 104.59 117 79.18 117 53 C112.71 53 108.42 53 104 53 C104 48.71 104 44.42 104 40 C99.71 40 95.42 40 91 40 C91 35.71 91 31.42 91 27 C86.71 27 82.42 27 78 27 C78 22.71 78 18.42 78 14 C48.3 14 18.6 14 -12 14 C-12 13.67 -12 13.34 -12 13 C-8.04 13 -4.08 13 0 13 C0 8.71 0 4.42 0 0 Z " fill="#7F9276" transform="translate(192,14)"/>
<path d="M0 0 C0.66 0 1.32 0 2 0 C2 3.96 2 7.92 2 12 C3.588125 11.979375 5.17625 11.95875 6.8125 11.9375 C15.56105458 11.92699753 24.26783998 12.50101943 33 13 C33 21.91 33 30.82 33 40 C50.82 40 68.64 40 87 40 C87 46.27 87 52.54 87 59 C68.52 59 50.04 59 31 59 C31 52.73 31 46.46 31 40 C24.73 40 18.46 40 12 40 C12 33.73 12 27.46 12 21 C5.73 21 -0.54 21 -7 21 C-7 14.73 -7 8.46 -7 2 C-4.69 2 -2.38 2 0 2 C0 1.34 0 0.68 0 0 Z " fill="#0D071A" transform="translate(165,171)"/>
<path d="M0 0 C15.51 0 31.02 0 47 0 C47 3.63 47 7.26 47 11 C41.39 11 35.78 11 30 11 C30 16.94 30 22.88 30 29 C24.39 29 18.78 29 13 29 C13 40.88 13 52.76 13 65 C8.71 65 4.42 65 0 65 C0 43.55 0 22.1 0 0 Z " fill="#AEE695" transform="translate(0,0)"/>
<path d="M0 0 C1.98 0 3.96 0 6 0 C6 5.61 6 11.22 6 17 C22.17 17 38.34 17 55 17 C55 33.17 55 49.34 55 66 C48.4 66 41.8 66 35 66 C35 56.1 35 46.2 35 36 C28.73 36 22.46 36 16 36 C16 30.39 16 24.78 16 19 C10.72 19 5.44 19 0 19 C0 12.73 0 6.46 0 0 Z " fill="#59C05D" transform="translate(24,135)"/>
<path d="M0 0 C6.27 0 12.54 0 19 0 C19 12.21 19 24.42 19 37 C0.52 37 -17.96 37 -37 37 C-37 30.73 -37 24.46 -37 18 C-24.79 18 -12.58 18 0 18 C0 12.06 0 6.12 0 0 Z " fill="#E69C69" transform="translate(290,362)"/>
<path d="M0 0 C4.29 0 8.58 0 13 0 C14.28194191 12.65917637 14.09657623 25.28908287 14 38 C15.28197266 37.98259766 15.28197266 37.98259766 16.58984375 37.96484375 C17.69457031 37.95582031 18.79929688 37.94679687 19.9375 37.9375 C21.03964844 37.92589844 22.14179688 37.91429687 23.27734375 37.90234375 C26 38 26 38 27 39 C27.07244053 41.01964199 27.08377188 43.04167124 27.0625 45.0625 C27.05347656 46.16722656 27.04445312 47.27195313 27.03515625 48.41015625 C27.02355469 49.26480469 27.01195312 50.11945313 27 51 C28.28197266 50.98259766 28.28197266 50.98259766 29.58984375 50.96484375 C30.69457031 50.95582031 31.79929688 50.94679687 32.9375 50.9375 C34.03964844 50.92589844 35.14179688 50.91429687 36.27734375 50.90234375 C39 51 39 51 40 52 C40.14355117 56.00220653 40.04216403 59.99441683 40 64 C43.96 64 47.92 64 52 64 C52 68.29 52 72.58 52 77 C56.29 77 60.58 77 65 77 C65 81.62 65 86.24 65 91 C60.71 91 56.42 91 52 91 C52 86.71 52 82.42 52 78 C47.71 78 43.42 78 39 78 C39 73.71 39 69.42 39 65 C34.71 65 30.42 65 26 65 C26 60.71 26 56.42 26 52 C21.71 52 17.42 52 13 52 C13 47.71 13 43.42 13 39 C8.71 39 4.42 39 0 39 C0 26.13 0 13.26 0 0 Z " fill="#EA91AD" transform="translate(153,67)"/>
<path d="M0 0 C5.94 0 11.88 0 18 0 C18 18.48 18 36.96 18 56 C11.73 56 5.46 56 -1 56 C-1.02486603 49.63200154 -1.0429382 43.26403184 -1.05493164 36.89599609 C-1.0599358 34.73323066 -1.06674117 32.57046857 -1.07543945 30.40771484 C-1.08767762 27.2848223 -1.09326764 24.16197479 -1.09765625 21.0390625 C-1.10281754 20.08448151 -1.10797882 19.12990051 -1.11329651 18.14639282 C-1.11379869 12.02826348 -0.69664273 6.07935284 0 0 Z " fill="#0F071B" transform="translate(84,249)"/>
<path d="M0 0 C12.21 0 24.42 0 37 0 C37 6.27 37 12.54 37 19 C31.06 19 25.12 19 19 19 C19 24.94 19 30.88 19 37 C12.73 37 6.46 37 0 37 C0 24.79 0 12.58 0 0 Z " fill="#F6CA9F" transform="translate(328,249)"/>
<path d="M0 0 C5.94 0 11.88 0 18 0 C18 12.21 18 24.42 18 37 C5.79 37 -6.42 37 -19 37 C-19 30.73 -19 24.46 -19 18 C-12.73 18 -6.46 18 0 18 C0 12.06 0 6.12 0 0 Z " fill="#FDFDFD" transform="translate(272,193)"/>
<path d="M0 0 C5.94 0 11.88 0 18 0 C18 5.94 18 11.88 18 18 C24.27 18 30.54 18 37 18 C37 24.27 37 30.54 37 37 C24.79 37 12.58 37 0 37 C0 24.79 0 12.58 0 0 Z " fill="#FDFDFD" transform="translate(159,193)"/>
<path d="M0 0 C5.94 0 11.88 0 18 0 C18 12.21 18 24.42 18 37 C5.79 37 -6.42 37 -19 37 C-19 30.73 -19 24.46 -19 18 C-12.73 18 -6.46 18 0 18 C0 12.06 0 6.12 0 0 Z " fill="#0E071B" transform="translate(140,193)"/>
<path d="M0 0 C12.21 0 24.42 0 37 0 C37 12.21 37 24.42 37 37 C31.06 37 25.12 37 19 37 C19 30.73 19 24.46 19 18 C12.73 18 6.46 18 0 18 C0 12.06 0 6.12 0 0 Z " fill="#0F081C" transform="translate(253,230)"/>
<path d="M0 0 C12.21 0 24.42 0 37 0 C37 5.94 37 11.88 37 18 C30.73 18 24.46 18 18 18 C18 24.27 18 30.54 18 37 C12.06 37 6.12 37 0 37 C0 24.79 0 12.58 0 0 Z " fill="#0F081C" transform="translate(159,230)"/>
<path d="M0 0 C12.21 0 24.42 0 37 0 C37 12.21 37 24.42 37 37 C31.06 37 25.12 37 19 37 C19 30.73 19 24.46 19 18 C12.73 18 6.46 18 0 18 C0 12.06 0 6.12 0 0 Z " fill="#F7E4CE" transform="translate(121,230)"/>
<path d="M0 0 C3.96 0 7.92 0 12 0 C12 3.96 12 7.92 12 12 C8.37 12.66 4.74 13.32 1 14 C3.475 14.495 3.475 14.495 6 15 C6 21.27 6 27.54 6 34 C12.27 34 18.54 34 25 34 C25 34.33 25 34.66 25 35 C12.79 35 0.58 35 -12 35 C-12 40.94 -12 46.88 -12 53 C-18.27 53 -24.54 53 -31 53 C-31 46.73 -31 40.46 -31 34 C-25.06 34 -19.12 34 -13 34 C-13 27.07 -13 20.14 -13 13 C-8.71 13 -4.42 13 0 13 C0 8.71 0 4.42 0 0 Z " fill="#606360" transform="translate(284,158)"/>
<path d="M0 0 C4.29 0 8.58 0 13 0 C13 4.29 13 8.58 13 13 C9.04 13 5.08 13 1 13 C1.020625 14.711875 1.04125 16.42375 1.0625 18.1875 C1.07041468 24.82791818 0.59705637 31.38973303 0 38 C-8.69980864 39.01286753 -17.25492893 39.10621544 -26 39 C-26 42.96 -26 46.92 -26 51 C-30.29 51 -34.58 51 -39 51 C-39 46.71 -39 42.42 -39 38 C-34.71 38 -30.42 38 -26 38 C-26 34.04 -26 30.08 -26 26 C-21.71 26 -17.42 26 -13 26 C-13 21.38 -13 16.76 -13 12 C-8.71 12 -4.42 12 0 12 C0 8.04 0 4.08 0 0 Z " fill="#ECB9C6" transform="translate(270,106)"/>
<path d="M0 0 C17.16 0 34.32 0 52 0 C52 4.29 52 8.58 52 13 C43.42 13 34.84 13 26 13 C26 17.29 26 21.58 26 26 C21.71 26 17.42 26 13 26 C13 21.71 13 17.42 13 13 C8.71 13 4.42 13 0 13 C0 8.71 0 4.42 0 0 Z " fill="#F47898" transform="translate(153,54)"/>
<path d="M0 0 C0.66 0 1.32 0 2 0 C2 3.96 2 7.92 2 12 C3.588125 11.979375 5.17625 11.95875 6.8125 11.9375 C15.56105458 11.92699753 24.26783998 12.50101943 33 13 C33 21.91 33 30.82 33 40 C26.07 40 19.14 40 12 40 C12 33.73 12 27.46 12 21 C5.73 21 -0.54 21 -7 21 C-7 14.73 -7 8.46 -7 2 C-4.69 2 -2.38 2 0 2 C0 1.34 0 0.68 0 0 Z " fill="#392D32" transform="translate(165,171)"/>
<path d="M0 0 C21.12 0 42.24 0 64 0 C64 3.96 64 7.92 64 12 C42.88 12 21.76 12 0 12 C0 8.04 0 4.08 0 0 Z " fill="#636363" transform="translate(193,15)"/>
<path d="M0 0 C4.29 0 8.58 0 13 0 C13 4.29 13 8.58 13 13 C21.58 13 30.16 13 39 13 C39 8.71 39 4.42 39 0 C43.29 0 47.58 0 52 0 C52 4.62 52 9.24 52 14 C39.13 14 26.26 14 13 14 C13 22.25 13 30.5 13 39 C8.71 39 4.42 39 0 39 C0 30.75 0 22.5 0 14 C-8.58 14 -17.16 14 -26 14 C-26 13.67 -26 13.34 -26 13 C-17.42 13 -8.84 13 0 13 C0 8.71 0 4.42 0 0 Z " fill="#EECAD3" transform="translate(218,170)"/>
<path d="M0 0 C0 18.15 0 36.3 0 55 C-3.63 55 -7.26 55 -11 55 C-11 54.01 -11 53.02 -11 52 C-11.66 52 -12.32 52 -13 52 C-14.40027356 17.51072249 -14.40027356 17.51072249 -13 2 C-17.62 2 -22.24 2 -27 2 C-27 1.67 -27 1.34 -27 1 C-24.93803154 0.82688121 -22.87537411 0.66197049 -20.8125 0.5 C-19.08966797 0.36078125 -19.08966797 0.36078125 -17.33203125 0.21875 C-11.56157955 -0.0726344 -5.77780388 0 0 0 Z " fill="#646662" transform="translate(140,80)"/>
<path d="M0 0 C12.21 0 24.42 0 37 0 C37 6.27 37 12.54 37 19 C24.79 19 12.58 19 0 19 C0 12.73 0 6.46 0 0 Z " fill="#0E071B" transform="translate(253,380)"/>
<path d="M0 0 C4.29 0 8.58 0 13 0 C13 4.29 13 8.58 13 13 C17.29 13 21.58 13 26 13 C26 17.29 26 21.58 26 26 C8.84 26 -8.32 26 -26 26 C-26 25.67 -26 25.34 -26 25 C-21.71 25 -17.42 25 -13 25 C-13 21.04 -13 17.08 -13 13 C-8.71 13 -4.42 13 0 13 C0 8.71 0 4.42 0 0 Z " fill="#EECDD5" transform="translate(257,28)"/>
<path d="M0 0 C4.29 0 8.58 0 13 0 C13 4.29 13 8.58 13 13 C16.96 13 20.92 13 25 13 C25 16.96 25 20.92 25 25 C29.29 25 33.58 25 38 25 C38 25.33 38 25.66 38 26 C20.84 26 3.68 26 -14 26 C-14 21.71 -14 17.42 -14 13 C-9.38 13 -4.76 13 0 13 C0 8.71 0 4.42 0 0 Z " fill="#EDCED5" transform="translate(180,28)"/>
<path d="M0 0 C5.94 0 11.88 0 18 0 C18 12.21 18 24.42 18 37 C12.06 37 6.12 37 0 37 C0 24.79 0 12.58 0 0 Z " fill="#0E071B" transform="translate(234,286)"/>
<path d="M0 0 C5.94 0 11.88 0 18 0 C18 12.21 18 24.42 18 37 C12.06 37 6.12 37 0 37 C0 24.79 0 12.58 0 0 Z " fill="#0E071B" transform="translate(178,286)"/>
<path d="M0 0 C5.94 0 11.88 0 18 0 C18 12.21 18 24.42 18 37 C12.06 37 6.12 37 0 37 C0 24.79 0 12.58 0 0 Z " fill="#F6CA9F" transform="translate(347,268)"/>
<path d="M0 0 C12.21 0 24.42 0 37 0 C37 5.94 37 11.88 37 18 C24.79 18 12.58 18 0 18 C0 12.06 0 6.12 0 0 Z " fill="#0E071B" transform="translate(290,268)"/>
<path d="M0 0 C5.94 0 11.88 0 18 0 C18 12.21 18 24.42 18 37 C12.06 37 6.12 37 0 37 C0 24.79 0 12.58 0 0 Z " fill="#F6CA9F" transform="translate(103,268)"/>
<path d="M0 0 C3.96 0 7.92 0 12 0 C12 16.83 12 33.66 12 51 C8.04 51 4.08 51 0 51 C0 34.17 0 17.34 0 0 Z " fill="#636363" transform="translate(310,80)"/>
<path d="M0 0 C6.6 0 13.2 0 20 0 C20 8.25 20 16.5 20 25 C24.29 25 28.58 25 33 25 C33 25.33 33 25.66 33 26 C21.99589271 27.27583853 11.06689838 27.07094166 0 27 C0 18.09 0 9.18 0 0 Z " fill="#7BA26A" transform="translate(198,184)"/>
<path d="M0 0 C4.29 0 8.58 0 13 0 C13 4.29 13 8.58 13 13 C8.71 13 4.42 13 0 13 C0 17.29 0 21.58 0 26 C-4.29 26 -8.58 26 -13 26 C-13 30.29 -13 34.58 -13 39 C-16.96 39 -20.92 39 -25 39 C-25 43.29 -25 47.58 -25 52 C-25.33 52 -25.66 52 -26 52 C-26 43.42 -26 34.84 -26 26 C-19.565 25.505 -19.565 25.505 -13 25 C-13.33 23.68 -13.66 22.36 -14 21 C-13.84427744 17.96592172 -13.39920889 15.01624491 -13 12 C-7.06 11.505 -7.06 11.505 -1 11 C-0.67 7.37 -0.34 3.74 0 0 Z " fill="#686966" transform="translate(166,28)"/>
<path d="M0 0 C4.29 0 8.58 0 13 0 C13 12.87 13 25.74 13 39 C8.71 39 4.42 39 0 39 C0 26.13 0 13.26 0 0 Z " fill="#A73C5D" transform="translate(283,67)"/>
<path d="M0 0 C4.29 0 8.58 0 13 0 C13 4.29 13 8.58 13 13 C17.29 13 21.58 13 26 13 C26 17.29 26 21.58 26 26 C17.42 26 8.84 26 0 26 C0 17.42 0 8.84 0 0 Z " fill="#FF7C9D" transform="translate(205,54)"/>
<path d="M0 0 C4.29 0 8.58 0 13 0 C13 12.87 13 25.74 13 39 C8.71 39 4.42 39 0 39 C0 26.13 0 13.26 0 0 Z " fill="#A63D5D" transform="translate(153,67)"/>
<path d="M0 0 C4.62 0 9.24 0 14 0 C14 8.58 14 17.16 14 26 C9.38 26 4.76 26 0 26 C0 17.42 0 8.84 0 0 Z " fill="#FFE1EB" transform="translate(179,67)"/>
<path d="M0 0 C5.94 0 11.88 0 18 0 C18 5.94 18 11.88 18 18 C9.585 18.495 9.585 18.495 1 19 C0.67 24.94 0.34 30.88 0 37 C5.94 37 11.88 37 18 37 C18 37.33 18 37.66 18 38 C11.73 38 5.46 38 -1 38 C-1.08971291 25.26076702 -0.82010414 12.71161421 0 0 Z " fill="#F5CBA1" transform="translate(366,305)"/>
<path d="M0 0 C6.27 0 12.54 0 19 0 C19 5.94 19 11.88 19 18 C12.73 18 6.46 18 0 18 C0 12.06 0 6.12 0 0 Z " fill="#0E071B" transform="translate(290,362)"/>
<path d="M0 0 C5.94 0 11.88 0 18 0 C18 6.27 18 12.54 18 19 C12.06 19 6.12 19 0 19 C0 12.73 0 6.46 0 0 Z " fill="#0E071B" transform="translate(328,286)"/>
<path d="M0 0 C6.27 0 12.54 0 19 0 C19 5.94 19 11.88 19 18 C12.73 18 6.46 18 0 18 C0 12.06 0 6.12 0 0 Z " fill="#F9E6CF" transform="translate(121,268)"/>
<path d="M0 0 C4.29 0 8.58 0 13 0 C13 8.58 13 17.16 13 26 C8.71 26 4.42 26 0 26 C0 17.42 0 8.84 0 0 Z " fill="#FFFCFD" transform="translate(244,67)"/>
<path d="M0 0 C5.94 0 11.88 0 18 0 C18 5.94 18 11.88 18 18 C12.06 18 6.12 18 0 18 C0 12.06 0 6.12 0 0 Z " fill="#F68187" transform="translate(178,362)"/>
<path d="M0 0 C5.94 0 11.88 0 18 0 C18 5.94 18 11.88 18 18 C12.06 18 6.12 18 0 18 C0 12.06 0 6.12 0 0 Z " fill="#F68187" transform="translate(140,362)"/>
<path d="M0 0 C5.94 0 11.88 0 18 0 C18 5.94 18 11.88 18 18 C12.06 18 6.12 18 0 18 C0 12.06 0 6.12 0 0 Z " fill="#0E071B" transform="translate(347,305)"/>
<path d="M0 0 C5.94 0 11.88 0 18 0 C18 5.94 18 11.88 18 18 C12.06 18 6.12 18 0 18 C0 12.06 0 6.12 0 0 Z " fill="#F9E6CF" transform="translate(328,268)"/>
<path d="M0 0 C5.94 0 11.88 0 18 0 C18 5.94 18 11.88 18 18 C12.06 18 6.12 18 0 18 C0 12.06 0 6.12 0 0 Z " fill="#F9E6CF" transform="translate(347,249)"/>
<path d="M0 0 C5.94 0 11.88 0 18 0 C18 5.94 18 11.88 18 18 C12.06 18 6.12 18 0 18 C0 12.06 0 6.12 0 0 Z " fill="#F9E6CF" transform="translate(103,249)"/>
<path d="M0 0 C5.94 0 11.88 0 18 0 C18 5.94 18 11.88 18 18 C12.06 18 6.12 18 0 18 C0 12.06 0 6.12 0 0 Z " fill="#0E081B" transform="translate(347,230)"/>
<path d="M0 0 C5.94 0 11.88 0 18 0 C18 5.94 18 11.88 18 18 C12.06 18 6.12 18 0 18 C0 12.06 0 6.12 0 0 Z " fill="#0E081B" transform="translate(103,230)"/>
<path d="M0 0 C5.94 0 11.88 0 18 0 C18 5.94 18 11.88 18 18 C12.06 18 6.12 18 0 18 C0 12.06 0 6.12 0 0 Z " fill="#0D0619" transform="translate(253,193)"/>
<path d="M0 0 C5.94 0 11.88 0 18 0 C18 5.94 18 11.88 18 18 C12.06 18 6.12 18 0 18 C0 12.06 0 6.12 0 0 Z " fill="#0D0619" transform="translate(178,193)"/>
<path d="M0 0 C6.27 0 12.54 0 19 0 C19 5.61 19 11.22 19 17 C12.73 17 6.46 17 0 17 C0 11.39 0 5.78 0 0 Z " fill="#5BC35E" transform="translate(40,278)"/>
<path d="M0 0 C8.25 0 16.5 0 25 0 C25 3.96 25 7.92 25 12 C16.75 12 8.5 12 0 12 C0 8.04 0 4.08 0 0 Z " fill="#DC6182" transform="translate(167,54)"/>
<path d="M0 0 C5.28 0 10.56 0 16 0 C16 5.61 16 11.22 16 17 C10.72 17 5.44 17 0 17 C0 11.39 0 5.78 0 0 Z " fill="#5AC25D" transform="translate(80,135)"/>
<path d="M0 0 C0.33 0 0.66 0 1 0 C1 17.16 1 34.32 1 52 C5.29 52 9.58 52 14 52 C14 60.25 14 68.5 14 77 C17.96 77 21.92 77 26 77 C26 77.33 26 77.66 26 78 C21.71 78 17.42 78 13 78 C13 73.71 13 69.42 13 65 C8.71 65 4.42 65 0 65 C0 43.55 0 22.1 0 0 Z " fill="#C7C8C7" transform="translate(140,80)"/>
<path d="M0 0 C0.33 0 0.66 0 1 0 C1 16.17 1 32.34 1 49 C3.31 49 5.62 49 8 49 C8 46.69 8 44.38 8 42 C8.88042969 41.98582031 9.76085937 41.97164062 10.66796875 41.95703125 C17.75301034 41.71186605 17.75301034 41.71186605 24.25 39.1875 C26.90992522 34.34263621 26.90435087 29.45200061 27 24 C27.33 24 27.66 24 28 24 C28 29.94 28 35.88 28 42 C33.94 42 39.88 42 46 42 C46 42.33 46 42.66 46 43 C40.06 43 34.12 43 28 43 C28 61.48 28 79.96 28 99 C27.67 99 27.34 99 27 99 C27 80.52 27 62.04 27 43 C21.06 43 15.12 43 9 43 C9 46.3 9 49.6 9 53 C6.03 53 3.06 53 0 53 C0 35.51 0 18.02 0 0 Z " fill="#6E6F5A" transform="translate(75,206)"/>
<path d="M0 0 C2.31 0 4.62 0 7 0 C7 3.3 7 6.6 7 10 C10.96 10 14.92 10 19 10 C19 12.64 19 15.28 19 18 C12.73 18 6.46 18 0 18 C0 12.06 0 6.12 0 0 Z " fill="#0C0617" transform="translate(159,174)"/>
<path d="M0 0 C2.31 0 4.62 0 7 0 C7 5.94 7 11.88 7 18 C1.06 18 -4.88 18 -11 18 C-11 15.36 -11 12.72 -11 10 C-7.37 10 -3.74 10 0 10 C0 6.7 0 3.4 0 0 Z " fill="#0D0718" transform="translate(283,174)"/>
<path d="M0 0 C4.29 0 8.58 0 13 0 C13 4.62 13 9.24 13 14 C0.13 14 -12.74 14 -26 14 C-26 13.67 -26 13.34 -26 13 C-17.42 13 -8.84 13 0 13 C0 8.71 0 4.42 0 0 Z " fill="#CECFCD" transform="translate(257,170)"/>
<path d="M0 0 C0.33 0 0.66 0 1 0 C1 24.42 1 48.84 1 74 C6.94 74 12.88 74 19 74 C19 67.73 19 61.46 19 55 C25.27 55 31.54 55 38 55 C38 55.33 38 55.66 38 56 C32.06 56 26.12 56 20 56 C20 62.27 20 68.54 20 75 C13.73 75 7.46 75 1 75 C1 93.15 1 111.3 1 130 C0.67 130 0.34 130 0 130 C0 111.85 0 93.7 0 75 C-5.94 75 -11.88 75 -18 75 C-18 74.67 -18 74.34 -18 74 C-12.06 74 -6.12 74 0 74 C0 49.58 0 25.16 0 0 Z " fill="#837879" transform="translate(158,193)"/>
<path d="M0 0 C3.63 0 7.26 0 11 0 C11 5.61 11 11.22 11 17 C7.37 17 3.74 17 0 17 C0 11.39 0 5.78 0 0 Z " fill="#4CA04E" transform="translate(129,135)"/>
<path d="M0 0 C10.05859375 -0.09765625 10.05859375 -0.09765625 13 0 C14 1 14 1 14.09765625 3.72265625 C14.04882812 8.36132812 14.04882812 8.36132812 14 13 C17.96 13 21.92 13 26 13 C26 13.33 26 13.66 26 14 C17.59157222 14.12205782 9.37155379 13.80689675 1 13 C0.67 8.71 0.34 4.42 0 0 Z " fill="#6E6D6E" transform="translate(166,170)"/>
<path d="M0 0 C4.29 0 8.58 0 13 0 C13 4.29 13 8.58 13 13 C8.71 13 4.42 13 0 13 C0 8.71 0 4.42 0 0 Z " fill="#94959B" transform="translate(231,184)"/>
<path d="M0 0 C4.29 0 8.58 0 13 0 C13 4.29 13 8.58 13 13 C8.71 13 4.42 13 0 13 C0 8.71 0 4.42 0 0 Z " fill="#929499" transform="translate(205,184)"/>
<path d="M0 0 C4.29 0 8.58 0 13 0 C13 4.29 13 8.58 13 13 C8.71 13 4.42 13 0 13 C0 8.71 0 4.42 0 0 Z " fill="#EFCED6" transform="translate(244,145)"/>
<path d="M0 0 C4.29 0 8.58 0 13 0 C13 4.29 13 8.58 13 13 C8.71 13 4.42 13 0 13 C0 8.71 0 4.42 0 0 Z " fill="#F0D1D8" transform="translate(192,145)"/>
<path d="M0 0 C4.29 0 8.58 0 13 0 C13 4.29 13 8.58 13 13 C8.71 13 4.42 13 0 13 C0 8.71 0 4.42 0 0 Z " fill="#F0D1D8" transform="translate(179,132)"/>
<path d="M0 0 C4.29 0 8.58 0 13 0 C13 4.29 13 8.58 13 13 C8.71 13 4.42 13 0 13 C0 8.71 0 4.42 0 0 Z " fill="#EFD0D7" transform="translate(166,119)"/>
<path d="M0 0 C4.29 0 8.58 0 13 0 C13 4.29 13 8.58 13 13 C8.71 13 4.42 13 0 13 C0 8.71 0 4.42 0 0 Z " fill="#FF7D9E" transform="translate(218,80)"/>
<path d="M0 0 C4.29 0 8.58 0 13 0 C13 4.29 13 8.58 13 13 C8.71 13 4.42 13 0 13 C0 8.71 0 4.42 0 0 Z " fill="#CECDCD" transform="translate(296,67)"/>
<path d="M0 0 C4.29 0 8.58 0 13 0 C13 4.29 13 8.58 13 13 C8.71 13 4.42 13 0 13 C0 8.71 0 4.42 0 0 Z " fill="#FF7C9D" transform="translate(270,67)"/>
<path d="M0 0 C4.29 0 8.58 0 13 0 C13 4.29 13 8.58 13 13 C8.71 13 4.42 13 0 13 C0 8.71 0 4.42 0 0 Z " fill="#FFE6EE" transform="translate(244,67)"/>
<path d="M0 0 C4.29 0 8.58 0 13 0 C13 4.29 13 8.58 13 13 C8.71 13 4.42 13 0 13 C0 8.71 0 4.42 0 0 Z " fill="#FE7A9B" transform="translate(231,67)"/>
<path d="M0 0 C4.29 0 8.58 0 13 0 C13 4.29 13 8.58 13 13 C8.71 13 4.42 13 0 13 C0 8.71 0 4.42 0 0 Z " fill="#A73A5B" transform="translate(218,67)"/>
<path d="M0 0 C4.29 0 8.58 0 13 0 C13 4.29 13 8.58 13 13 C8.71 13 4.42 13 0 13 C0 8.71 0 4.42 0 0 Z " fill="#FAF5F7" transform="translate(283,54)"/>
<path d="M0 0 C4.29 0 8.58 0 13 0 C13 4.29 13 8.58 13 13 C8.71 13 4.42 13 0 13 C0 8.71 0 4.42 0 0 Z " fill="#A83B5C" transform="translate(270,54)"/>
<path d="M0 0 C4.29 0 8.58 0 13 0 C13 4.29 13 8.58 13 13 C8.71 13 4.42 13 0 13 C0 8.71 0 4.42 0 0 Z " fill="#A83C5D" transform="translate(231,54)"/>
<path d="M0 0 C4.29 0 8.58 0 13 0 C13 4.29 13 8.58 13 13 C8.71 13 4.42 13 0 13 C0 8.71 0 4.42 0 0 Z " fill="#A93C5D" transform="translate(205,54)"/>
<path d="M0 0 C4.29 0 8.58 0 13 0 C13 4.29 13 8.58 13 13 C8.71 13 4.42 13 0 13 C0 8.71 0 4.42 0 0 Z " fill="#F9F6F7" transform="translate(153,54)"/>
<path d="M0 0 C0.33 0 0.66 0 1 0 C1 12.21 1 24.42 1 37 C6.94 37 12.88 37 19 37 C19 31.06 19 25.12 19 19 C19.33 19 19.66 19 20 19 C20 24.94 20 30.88 20 37 C25.94 37 31.88 37 38 37 C38 37.33 38 37.66 38 38 C32.06 38 26.12 38 20 38 C20 62.42 20 86.84 20 112 C19.67 112 19.34 112 19 112 C19 87.58 19 63.16 19 38 C12.73 38 6.46 38 0 38 C0 25.46 0 12.92 0 0 Z " fill="#6F685D" transform="translate(346,211)"/>
<path d="M0 0 C4.29 0.33 8.58 0.66 13 1 C13 4.96 13 8.92 13 13 C8.71 13 4.42 13 0 13 C0 8.71 0 4.42 0 0 Z " fill="#ECECEC" transform="translate(166,157)"/>
<path d="M0 0 C3.96 0 7.92 0 12 0 C12 4.29 12 8.58 12 13 C7.71 13 3.42 13 -1 13 C-0.67 8.71 -0.34 4.42 0 0 Z " fill="#EFCFD7" transform="translate(271,119)"/>
<path d="M0 0 C4.29 0 8.58 0 13 0 C13 3.96 13 7.92 13 12 C8.71 12 4.42 12 0 12 C0 8.04 0 4.08 0 0 Z " fill="#CCCDCC" transform="translate(218,197)"/>
<path d="M0 0 C4.29 0 8.58 0 13 0 C13 3.96 13 7.92 13 12 C8.71 12 4.42 12 0 12 C0 8.04 0 4.08 0 0 Z " fill="#EFEFEF" transform="translate(270,158)"/>
<path d="M0 0 C4.29 0 8.58 0 13 0 C13 3.96 13 7.92 13 12 C8.71 12 4.42 12 0 12 C0 8.04 0 4.08 0 0 Z " fill="#EECCD5" transform="translate(231,158)"/>
<path d="M0 0 C4.29 0 8.58 0 13 0 C13 3.96 13 7.92 13 12 C8.71 12 4.42 12 0 12 C0 8.04 0 4.08 0 0 Z " fill="#DE6585" transform="translate(218,158)"/>
<path d="M0 0 C4.29 0 8.58 0 13 0 C13 3.96 13 7.92 13 12 C8.71 12 4.42 12 0 12 C0 8.04 0 4.08 0 0 Z " fill="#EFCED6" transform="translate(205,158)"/>
<path d="M0 0 C4.29 0 8.58 0 13 0 C13 3.96 13 7.92 13 12 C8.71 12 4.42 12 0 12 C0 8.04 0 4.08 0 0 Z " fill="#626262" transform="translate(153,158)"/>
<path d="M0 0 C4.29 0 8.58 0 13 0 C13 3.96 13 7.92 13 12 C8.71 12 4.42 12 0 12 C0 8.04 0 4.08 0 0 Z " fill="#DE6485" transform="translate(231,145)"/>
<path d="M0 0 C3.96 0 7.92 0 12 0 C12 4.29 12 8.58 12 13 C8.04 13 4.08 13 0 13 C0 8.71 0 4.42 0 0 Z " fill="#FFFCFD" transform="translate(219,144)"/>
<path d="M0 0 C4.29 0 8.58 0 13 0 C13 3.96 13 7.92 13 12 C8.71 12 4.42 12 0 12 C0 8.04 0 4.08 0 0 Z " fill="#CECECE" transform="translate(296,132)"/>
<path d="M0 0 C4.29 0 8.58 0 13 0 C13 3.96 13 7.92 13 12 C8.71 12 4.42 12 0 12 C0 8.04 0 4.08 0 0 Z " fill="#DE6485" transform="translate(244,132)"/>
<path d="M0 0 C4.29 0 8.58 0 13 0 C13 3.96 13 7.92 13 12 C8.71 12 4.42 12 0 12 C0 8.04 0 4.08 0 0 Z " fill="#FFE6EE" transform="translate(231,132)"/>
<path d="M0 0 C4.29 0 8.58 0 13 0 C13 3.96 13 7.92 13 12 C8.71 12 4.42 12 0 12 C0 8.04 0 4.08 0 0 Z " fill="#FFE6EE" transform="translate(244,119)"/>
<path d="M0 0 C4.29 0 8.58 0 13 0 C13 3.96 13 7.92 13 12 C8.71 12 4.42 12 0 12 C0 8.04 0 4.08 0 0 Z " fill="#DE6485" transform="translate(270,106)"/>
<path d="M0 0 C3.96 0 7.92 0 12 0 C12 4.29 12 8.58 12 13 C8.04 13 4.08 13 0 13 C0 8.71 0 4.42 0 0 Z " fill="#FF7B9C" transform="translate(167,67)"/>
<path d="M0 0 C3.96 0 7.92 0 12 0 C12 4.29 12 8.58 12 13 C8.04 13 4.08 13 0 13 C0 8.71 0 4.42 0 0 Z " fill="#CECECE" transform="translate(141,67)"/>
<path d="M0 0 C4.29 0 8.58 0 13 0 C13 3.96 13 7.92 13 12 C8.71 12 4.42 12 0 12 C0 8.04 0 4.08 0 0 Z " fill="#DE6384" transform="translate(257,54)"/>
<path d="M0 0 C4.29 0 8.58 0 13 0 C13 3.96 13 7.92 13 12 C8.71 12 4.42 12 0 12 C0 8.04 0 4.08 0 0 Z " fill="#FEFEFE" transform="translate(270,41)"/>
<path d="M0 0 C3.96 0 7.92 0 12 0 C12 4.29 12 8.58 12 13 C8.04 13 4.08 13 0 13 C0 8.71 0 4.42 0 0 Z " fill="#CECECE" transform="translate(258,28)"/>
<path d="M0 0 C3.96 0 7.92 0 12 0 C12 4.29 12 8.58 12 13 C8.04 13 4.08 13 0 13 C0 8.71 0 4.42 0 0 Z " fill="#CECECE" transform="translate(180,28)"/>
<path d="M0 0 C4.29 0 8.58 0 13 0 C13 3.96 13 7.92 13 12 C9.04 12 5.08 12 1 12 C0.15271797 7.76358987 -0.08384078 4.27587998 0 0 Z " fill="#626362" transform="translate(140,145)"/>
<path d="M0 0 C4.29 0.33 8.58 0.66 13 1 C13 4.96 13 8.92 13 13 C9.04 13 5.08 13 1 13 C0.67 8.71 0.34 4.42 0 0 Z " fill="#CECECE" transform="translate(179,170)"/>
<path d="M0 0 C3.96 0 7.92 0 12 0 C12 3.96 12 7.92 12 12 C8.04 12 4.08 12 0 12 C0 8.04 0 4.08 0 0 Z " fill="#FFFFFF" transform="translate(219,184)"/>
<path d="M0 0 C3.96 0 7.92 0 12 0 C12 3.96 12 7.92 12 12 C8.04 12 4.08 12 0 12 C0 8.04 0 4.08 0 0 Z " fill="#636363" transform="translate(297,145)"/>
<path d="M0 0 C3.96 0 7.92 0 12 0 C12 3.96 12 7.92 12 12 C8.04 12 4.08 12 0 12 C0 8.04 0 4.08 0 0 Z " fill="#DE6384" transform="translate(206,145)"/>
<path d="M0 0 C3.96 0 7.92 0 12 0 C12 3.96 12 7.92 12 12 C8.04 12 4.08 12 0 12 C0 8.04 0 4.08 0 0 Z " fill="#DE6384" transform="translate(193,132)"/>
<path d="M0 0 C3.96 0 7.92 0 12 0 C12 3.96 12 7.92 12 12 C8.04 12 4.08 12 0 12 C0 8.04 0 4.08 0 0 Z " fill="#DE6384" transform="translate(258,119)"/>
<path d="M0 0 C3.96 0 7.92 0 12 0 C12 3.96 12 7.92 12 12 C8.04 12 4.08 12 0 12 C0 8.04 0 4.08 0 0 Z " fill="#DE6384" transform="translate(180,119)"/>
<path d="M0 0 C3.96 0 7.92 0 12 0 C12 3.96 12 7.92 12 12 C8.04 12 4.08 12 0 12 C0 8.04 0 4.08 0 0 Z " fill="#DE6384" transform="translate(167,106)"/>
<path d="M0 0 C3.96 0 7.92 0 12 0 C12 3.96 12 7.92 12 12 C8.04 12 4.08 12 0 12 C0 8.04 0 4.08 0 0 Z " fill="#FFFFFF" transform="translate(180,80)"/>
<path d="M0 0 C3.96 0 7.92 0 12 0 C12 3.96 12 7.92 12 12 C8.04 12 4.08 12 0 12 C0 8.04 0 4.08 0 0 Z " fill="#636363" transform="translate(297,54)"/>
<path d="M0 0 C3.96 0 7.92 0 12 0 C12 3.96 12 7.92 12 12 C8.04 12 4.08 12 0 12 C0 8.04 0 4.08 0 0 Z " fill="#A5395A" transform="translate(167,54)"/>
<path d="M0 0 C3.96 0 7.92 0 12 0 C12 3.96 12 7.92 12 12 C8.04 12 4.08 12 0 12 C0 8.04 0 4.08 0 0 Z " fill="#636363" transform="translate(284,41)"/>
<path d="M0 0 C3.96 0 7.92 0 12 0 C12 3.96 12 7.92 12 12 C8.04 12 4.08 12 0 12 C0 8.04 0 4.08 0 0 Z " fill="#FFFFFF" transform="translate(167,41)"/>
<path d="M0 0 C3.96 0 7.92 0 12 0 C12 3.96 12 7.92 12 12 C8.04 12 4.08 12 0 12 C0 8.04 0 4.08 0 0 Z " fill="#636363" transform="translate(271,28)"/>
<path d="M0 0 C5.61 0 11.22 0 17 0 C17 6.27 17 12.54 17 19 C15.68 19 14.36 19 13 19 C13 14.05 13 9.1 13 4 C8.71 4 4.42 4 0 4 C0 2.68 0 1.36 0 0 Z " fill="#A2DE84" transform="translate(46,166)"/>
<path d="M0 0 C2.31 0 4.62 0 7 0 C7 5.61 7 11.22 7 17 C4.69 17 2.38 17 0 17 C0 11.39 0 5.78 0 0 Z " fill="#5AC25D" transform="translate(0,278)"/>
<path d="M0 0 C3.96 0 7.92 0 12 0 C12 0.66 12 1.32 12 2 C9.36 2 6.72 2 4 2 C4 7.94 4 13.88 4 20 C2.68 20 1.36 20 0 20 C0 13.4 0 6.8 0 0 Z " fill="#479449" transform="translate(109,324)"/>
<path d="M0 0 C0.33 0 0.66 0 1 0 C1 3.96 1 7.92 1 12 C4.96 12 8.92 12 13 12 C13 8.04 13 4.08 13 0 C13.33 0 13.66 0 14 0 C14 4.29 14 8.58 14 13 C8.06 13.495 8.06 13.495 2 14 C1.67 17.96 1.34 21.92 1 26 C-0.65 26.33 -2.3 26.66 -4 27 C-4 26.34 -4 25.68 -4 25 C-2.68 25 -1.36 25 0 25 C0 21.04 0 17.08 0 13 C-3.96 13 -7.92 13 -12 13 C-12 17.29 -12 21.58 -12 26 C-16.62 26 -21.24 26 -26 26 C-26 25.67 -26 25.34 -26 25 C-21.71 25 -17.42 25 -13 25 C-13 20.71 -13 16.42 -13 12 C-8.71 12 -4.42 12 0 12 C0 8.04 0 4.08 0 0 Z " fill="#889781" transform="translate(296,145)"/>
<path d="M0 0 C0.33 0 0.66 0 1 0 C1 3.96 1 7.92 1 12 C4.96 12 8.92 12 13 12 C13 12.33 13 12.66 13 13 C9.04 13 5.08 13 1 13 C1 16.96 1 20.92 1 25 C4.96 25 8.92 25 13 25 C13 25.33 13 25.66 13 26 C8.71 26 4.42 26 0 26 C0 21.71 0 17.42 0 13 C-8.58 13 -17.16 13 -26 13 C-26 12.67 -26 12.34 -26 12 C-17.42 12 -8.84 12 0 12 C0 8.04 0 4.08 0 0 Z " fill="#E1DBDB" transform="translate(218,171)"/>
<path d="M0 0 C0.33 0 0.66 0 1 0 C1 5.94 1 11.88 1 18 C6.94 18 12.88 18 19 18 C19 18.33 19 18.66 19 19 C13.06 19 7.12 19 1 19 C1 24.94 1 30.88 1 37 C0.67 37 0.34 37 0 37 C0 31.06 0 25.12 0 19 C-5.94 19 -11.88 19 -18 19 C-18 18.67 -18 18.34 -18 18 C-12.06 18 -6.12 18 0 18 C0 12.06 0 6.12 0 0 Z " fill="#F7D8B7" transform="translate(346,249)"/>
<path d="M0 0 C2.31 0 4.62 0 7 0 C7 2.97 7 5.94 7 9 C4.69 9 2.38 9 0 9 C0 6.03 0 3.06 0 0 Z " fill="#3E2630" transform="translate(146,157)"/>
<path d="M0 0 C2.64 0 5.28 0 8 0 C8 1.32 8 2.64 8 4 C5.36 4 2.72 4 0 4 C0 2.68 0 1.36 0 0 Z " fill="#50A050" transform="translate(75,255)"/>
<path d="M0 0 C3.3 0 6.6 0 10 0 C10 0.99 10 1.98 10 3 C6.7 3 3.4 3 0 3 C0 2.01 0 1.02 0 0 Z " fill="#3A212C" transform="translate(130,132)"/>
<path d="M0 0 C0.33 0 0.66 0 1 0 C1 1.98 1 3.96 1 6 C-0.98 6 -2.96 6 -5 6 C-3.35830472 3.97945196 -1.69088222 1.97956942 0 0 Z " fill="#769F60" transform="translate(101,242)"/>
</svg>
